<?xml version="1.0" standalone="no"?>
<svg viewBox="0 0 200 200" xmlns="http://www.w3.org/2000/svg">
  <path fill="#0F62FE" d="M20.8,-41C24.9,-29.6,24.8,-20.5,33.1,-12.2C41.3,-4,57.9,3.4,58.7,9.5C59.4,15.6,44.4,20.5,35.1,29.5C25.8,38.4,22.4,51.5,15.2,55.1C8,58.8,-2.9,53,-14.6,49.6C-26.4,46.3,-38.9,45.4,-46.3,39C-53.8,32.5,-56.1,20.5,-54.8,9.7C-53.5,-1.1,-48.6,-10.5,-43.2,-18.6C-37.8,-26.8,-31.9,-33.5,-24.6,-43.5C-17.3,-53.5,-8.6,-66.6,-0.2,-66.3C8.3,-66.1,16.6,-52.4,20.8,-41Z" transform="translate(100 100)" />
</svg>
