<?xml version="1.0" standalone="no"?>
<svg viewBox="0 0 200 200" xmlns="http://www.w3.org/2000/svg">
  <path fill="#08BDBA" d="M39.6,-53.5C52.8,-53.1,66.1,-44.7,59.7,-34.4C53.2,-24.1,27.1,-12,20.9,0.2C14.8,12.4,28.7,24.7,31,32.8C33.2,40.9,23.7,44.8,12,54.4C0.3,64,-13.8,79.4,-27.9,81.4C-41.9,83.4,-56.1,72.1,-64.2,58.2C-72.3,44.2,-74.3,27.6,-74.3,12.1C-74.4,-3.4,-72.5,-17.8,-65.8,-29.1C-59.2,-40.3,-47.7,-48.4,-36,-49.6C-24.2,-50.7,-12.1,-44.9,0.5,-45.7C13.2,-46.6,26.3,-54,39.6,-53.5Z" transform="translate(100 100)" />
</svg>
